<?xml version="1.0" standalone="no"?>
<!DOCTYPE svg PUBLIC "-//W3C//DTD SVG 20010904//EN"
 "http://www.w3.org/TR/2001/REC-SVG-20010904/DTD/svg10.dtd">
<svg version="1.0" xmlns="http://www.w3.org/2000/svg"
 width="480.000000pt" height="480.000000pt" viewBox="0 0 480.000000 480.000000"
 preserveAspectRatio="xMidYMid meet">
<metadata>
Created by potrace 1.11, written by Peter Selinger 2001-2013
</metadata>
<g transform="translate(0.000000,480.000000) scale(0.100000,-0.100000)"
fill="#000000" stroke="none">
<path d="M1595 3720 c-265 -39 -481 -237 -541 -496 -12 -55 -14 -143 -12 -545
l3 -479 -30 -5 c-56 -8 -280 -19 -415 -19 -149 0 -169 4 -377 79 -119 44 -166
53 -189 37 -21 -13 -34 -51 -34 -95 0 -186 355 -504 829 -741 775 -389 1620
-481 2466 -270 529 132 1021 382 1306 664 148 145 206 258 196 379 -4 55 -9
69 -32 89 -35 29 -48 27 -228 -45 -235 -93 -259 -97 -539 -87 l-240 9 1 482
c2 530 0 555 -60 679 -93 197 -281 333 -499 364 l-69 10 -118 -59 c-452 -226
-847 -223 -1255 9 -48 28 -94 49 -100 49 -7 -1 -36 -5 -63 -9z m-346 -1524
c216 -131 617 -207 1101 -207 344 0 632 36 870 107 92 28 243 95 272 121 23
20 43 12 68 -29 31 -51 27 -125 -9 -175 -92 -127 -381 -229 -792 -279 -176
-22 -617 -25 -784 -6 -530 61 -865 205 -865 373 0 37 51 129 71 129 6 0 37
-15 68 -34z"/>
</g>
</svg>
