<svg xmlns="http://www.w3.org/2000/svg" xmlns:xlink="http://www.w3.org/1999/xlink"><symbol viewBox="0 0 9 9" id="drop" xmlns="http://www.w3.org/2000/svg"><path d="M4 8.7c.3.3.8.3 1.1 0l3.6-3.6c.9-.8-.4-2.1-1.2-1.2L5.9 5.4c-.2.2-.8.9-1.4.9-.6 0-1.2-.8-1.3-.9L1.5 3.9C.7 3-.6 4.3.3 5.1L4 8.7z"/></symbol><symbol viewBox="0 0 22 22" id="plus" xmlns="http://www.w3.org/2000/svg"><path fill="#231F20" d="M21 10h-9V1c0-.6-.4-1-1-1s-1 .4-1 1v9H1c-.6 0-1 .4-1 1s.4 1 1 1h9v9c0 .6.4 1 1 1s1-.4 1-1v-9h9c.6 0 1-.4 1-1s-.4-1-1-1z"/></symbol></svg>